<?xml version="1.0" encoding="UTF-8"?>
<svg xmlns="http://www.w3.org/2000/svg" xmlns:xlink="http://www.w3.org/1999/xlink" width="211.925" height="211.925" viewBox="0 0 211.925 211.925">
<path fill-rule="nonzero" fill="rgb(77.645874%, 54.902649%, 53.33252%)" fill-opacity="1" d="M 79.265625 166.382812 L 49.617188 166.382812 C 48.835938 166.382812 47.835938 166.902344 47.386719 167.542969 L 33.570312 187.28125 C 33.121094 187.921875 33.074219 188.992188 33.464844 189.667969 L 37.714844 197.035156 C 38.105469 197.710938 39.058594 198.261719 39.84375 198.261719 L 97.675781 198.261719 C 98.457031 198.261719 98.777344 197.710938 98.382812 197.035156 L 96.117188 193.109375 C 95.726562 192.433594 94.773438 191.882812 93.992188 191.882812 L 47.570312 191.882812 C 46.789062 191.882812 45.835938 191.335938 45.445312 190.65625 L 43.238281 186.832031 C 42.84375 186.152344 42.890625 185.082031 43.339844 184.441406 L 50.707031 173.921875 C 51.15625 173.28125 52.152344 172.761719 52.9375 172.761719 L 82.949219 172.761719 C 83.730469 172.761719 84.050781 172.210938 83.65625 171.53125 L 81.394531 167.609375 C 81 166.933594 80.050781 166.382812 79.265625 166.382812 Z M 79.265625 166.382812 "/>
<path fill-rule="nonzero" fill="rgb(54.116821%, 72.155762%, 44.706726%)" fill-opacity="1" d="M 102.066406 190.65625 L 53.875 107.1875 C 53.484375 106.511719 53.484375 105.414062 53.875 104.734375 L 102.066406 21.265625 C 102.457031 20.589844 103.410156 20.039062 104.191406 20.039062 L 107.734375 20.039062 C 108.515625 20.039062 109.46875 20.589844 109.859375 21.265625 L 124.878906 47.273438 C 125.269531 47.953125 125.269531 49.050781 124.878906 49.730469 L 122.613281 53.65625 C 122.222656 54.332031 121.585938 54.332031 121.195312 53.65625 L 106.671875 28.5 C 106.28125 27.824219 105.644531 27.824219 105.253906 28.5 L 61.238281 104.734375 C 60.847656 105.410156 60.847656 106.511719 61.238281 107.1875 L 105.253906 183.421875 C 105.644531 184.101562 106.28125 184.101562 106.671875 183.421875 L 110.835938 176.210938 C 111.226562 175.53125 111.859375 175.53125 112.25 176.210938 L 114.515625 180.132812 C 114.910156 180.8125 114.910156 181.910156 114.515625 182.589844 L 109.859375 190.65625 C 109.46875 191.335938 108.515625 191.882812 107.734375 191.882812 L 104.191406 191.882812 C 103.410156 191.882812 102.457031 191.335938 102.066406 190.65625 Z M 102.066406 190.65625 "/>
<path fill-rule="evenodd" fill="rgb(79.998779%, 87.841797%, 59.999084%)" fill-opacity="1" d="M 130.410156 196.324219 L 89.308594 125.132812 C 88.917969 124.457031 88.917969 123.355469 89.308594 122.679688 L 130.410156 51.484375 C 130.804688 50.808594 131.753906 50.257812 132.539062 50.257812 L 136.082031 50.257812 C 136.863281 50.257812 137.816406 50.808594 138.207031 51.484375 L 179.308594 122.679688 C 179.703125 123.355469 179.703125 124.457031 179.308594 125.132812 L 138.207031 196.324219 C 137.816406 197.003906 136.863281 197.554688 136.082031 197.554688 L 132.539062 197.554688 C 131.753906 197.554688 130.804688 197.003906 130.410156 196.324219 Z M 133.601562 189.09375 L 96.675781 125.132812 C 96.285156 124.453125 96.285156 123.355469 96.675781 122.675781 L 133.601562 58.714844 C 133.996094 58.035156 134.628906 58.035156 135.019531 58.714844 L 171.949219 122.675781 C 172.339844 123.355469 172.339844 124.453125 171.949219 125.132812 L 135.019531 189.09375 C 134.628906 189.773438 133.996094 189.773438 133.601562 189.09375 Z M 133.601562 189.09375 "/>
</svg>
