<?xml version="1.0" encoding="UTF-8"?>
<svg xmlns="http://www.w3.org/2000/svg" xmlns:xlink="http://www.w3.org/1999/xlink" width="88.793pt" height="108.624pt" viewBox="0 0 88.793 108.624">
<defs>
<clipPath id="clip-0">
<path clip-rule="nonzero" d="M 34 18 L 88.792969 18 L 88.792969 107 L 34 107 Z M 34 18 "/>
</clipPath>
</defs>
<path fill-rule="nonzero" fill="rgb(46.273804%, 47.843933%, 52.549744%)" fill-opacity="1" d="M 27.5625 88.019531 L 10.882812 88.019531 C 10.101562 88.019531 9.101562 88.539062 8.652344 89.183594 L 1.011719 100.097656 C 0.5625 100.738281 0.515625 101.804688 0.90625 102.484375 L 2.890625 105.921875 C 3.285156 106.597656 4.234375 107.148438 5.019531 107.148438 L 38.585938 107.148438 C 39.367188 107.148438 39.6875 106.597656 39.296875 105.921875 L 38.503906 104.550781 C 38.113281 103.871094 37.164062 103.320312 36.378906 103.320312 L 9.660156 103.320312 C 8.878906 103.320312 7.925781 102.773438 7.535156 102.09375 L 6.773438 100.78125 C 6.382812 100.101562 6.429688 99.035156 6.878906 98.390625 L 10.648438 93.007812 C 11.097656 92.367188 12.097656 91.847656 12.878906 91.847656 L 29.765625 91.847656 C 30.550781 91.847656 30.867188 91.296875 30.476562 90.617188 L 29.6875 89.25 C 29.296875 88.570312 28.34375 88.019531 27.5625 88.019531 Z M 27.5625 88.019531 "/>
<path fill-rule="nonzero" fill="rgb(46.273804%, 47.843933%, 52.549744%)" fill-opacity="1" d="M 41.519531 102.09375 L 13.171875 52.996094 C 12.78125 52.316406 12.78125 51.21875 13.171875 50.539062 L 41.519531 1.4375 C 41.910156 0.761719 42.863281 0.210938 43.644531 0.210938 L 44.640625 0.210938 C 45.421875 0.210938 46.375 0.761719 46.765625 1.4375 L 55.210938 16.0625 C 55.601562 16.742188 55.601562 17.839844 55.210938 18.519531 L 54.421875 19.882812 C 54.03125 20.5625 53.398438 20.5625 53.003906 19.882812 L 44.855469 5.769531 C 44.464844 5.09375 43.828125 5.09375 43.4375 5.769531 L 17.59375 50.535156 C 17.199219 51.214844 17.199219 52.3125 17.59375 52.992188 L 43.433594 97.757812 C 43.828125 98.433594 44.460938 98.433594 44.851562 97.757812 L 46.785156 94.410156 C 47.175781 93.734375 47.8125 93.734375 48.203125 94.410156 L 48.992188 95.78125 C 49.382812 96.457031 49.382812 97.558594 48.992188 98.234375 L 46.761719 102.09375 C 46.371094 102.773438 45.421875 103.324219 44.636719 103.324219 L 43.644531 103.324219 C 42.863281 103.324219 41.910156 102.773438 41.519531 102.09375 Z M 41.519531 102.09375 "/>
<g clip-path="url(#clip-0)">
<path fill-rule="evenodd" fill="rgb(46.273804%, 47.843933%, 52.549744%)" fill-opacity="1" d="M 58.535156 105.496094 L 34.441406 63.761719 C 34.046875 63.085938 34.046875 61.984375 34.441406 61.308594 L 58.535156 19.570312 C 58.925781 18.894531 59.878906 18.34375 60.660156 18.34375 L 61.65625 18.34375 C 62.441406 18.34375 63.394531 18.894531 63.785156 19.570312 L 87.878906 61.308594 C 88.269531 61.984375 88.269531 63.085938 87.878906 63.761719 L 63.78125 105.496094 C 63.390625 106.175781 62.4375 106.726562 61.65625 106.726562 L 60.660156 106.726562 C 59.878906 106.726562 58.925781 106.175781 58.535156 105.496094 Z M 60.453125 101.160156 L 38.859375 63.761719 C 38.46875 63.082031 38.46875 61.984375 38.859375 61.304688 L 60.457031 23.902344 C 60.847656 23.222656 61.480469 23.222656 61.871094 23.902344 L 83.464844 61.304688 C 83.855469 61.984375 83.855469 63.082031 83.464844 63.757812 L 61.871094 101.160156 C 61.480469 101.835938 60.84375 101.835938 60.453125 101.160156 Z M 60.453125 101.160156 "/>
</g>
</svg>
